<svg width="28" height="28" viewBox="0 0 28 28" fill="none" xmlns="http://www.w3.org/2000/svg">
<path d="M13.8558 11.5618C14.0131 11.2472 14.3277 11.2472 14.3277 11.5618L14.7997 12.9775H18.5749L16.53 7.47191C16.3727 7.1573 16.0581 7 15.7435 7H12.4401C12.1255 7 11.8109 7.1573 11.6536 7.47191L9.60864 12.9775H13.3839L13.8558 11.5618Z" fill="#414548"/>
<path d="M15.4286 14.5506C15.4286 14.7079 15.4286 14.8652 15.114 14.8652H13.0691C12.9118 14.8652 12.7545 14.7079 12.7545 14.5506L12.9118 13.9214H9.1365L6.77695 20.2135C6.61964 20.6854 6.93425 21 7.24886 21H10.0803C10.2376 21 10.5522 20.8427 10.5522 20.6854L11.3387 18.4832C11.3387 18.3259 11.496 18.3259 11.6534 18.3259H16.5298C16.6871 18.3259 16.6871 18.3259 16.8444 18.4832L17.6309 20.6854C17.6309 20.8427 17.9455 21 18.1028 21H20.9343C21.2489 21 21.5635 20.6854 21.4062 20.2135L19.0466 13.9214H15.114L15.4286 14.5506Z" fill="#414548"/>
<path d="M6.30516 12.9775C5.99056 12.9775 5.83325 13.1348 5.83325 13.4494C5.83325 13.7641 5.99056 13.9214 6.30516 13.9214H9.13662L9.45123 12.9775H6.30516Z" fill="#414548"/>
<path d="M21.8781 12.9775H18.5747L18.8893 13.9214H21.7208C22.0354 13.9214 22.1927 13.7641 22.1927 13.4494C22.35 13.1348 22.1927 12.9775 21.8781 12.9775Z" fill="#414548"/>
</svg>
