<svg width="2954" height="160" viewBox="0 0 2954 160" fill="none" xmlns="http://www.w3.org/2000/svg">
  <path d="M738.296 67.6409C735.276 65.8689 732.788 63.3881 731.011 60.1985C729.234 57.0089 728.345 53.6421 728.345 49.9209C728.345 46.1997 729.234 42.8329 731.011 39.8205C732.788 36.6309 735.276 34.1502 738.296 32.3782C741.317 30.6062 744.694 29.543 748.425 29.543C751.979 29.543 755.355 30.429 758.376 32.3782C761.397 34.1502 763.885 36.6309 765.662 39.8205C767.439 43.0101 768.327 46.3769 768.327 49.9209C768.327 53.6421 767.439 57.0089 765.662 60.1985C763.885 63.3881 761.575 65.8689 758.376 67.6409C755.355 69.4129 751.979 70.4761 748.425 70.4761C744.694 70.2989 741.317 69.4129 738.296 67.6409ZM759.62 61.6161C762.819 58.4265 764.24 54.3509 764.24 49.7437C764.24 45.1365 762.641 41.2381 759.62 38.0485C756.422 34.859 752.69 33.2642 748.248 33.2642C743.805 33.2642 739.896 34.859 736.697 38.0485C733.499 41.2381 731.899 45.1365 731.899 49.7437C731.899 54.5281 733.499 58.4265 736.697 61.6161C739.896 64.8057 743.627 66.4005 748.248 66.4005C752.69 66.5777 756.599 64.9829 759.62 61.6161ZM745.049 137.635C744.871 137.28 744.871 136.926 745.049 136.394L801.379 32.0238C801.734 31.315 802.267 30.9606 803.156 30.9606H804.044C804.577 30.9606 805.11 31.1378 805.288 31.4922C805.466 31.8466 805.466 32.201 805.288 32.7326L748.958 137.103C748.603 137.812 748.07 138.166 747.181 138.166H746.293C745.76 138.166 745.227 137.989 745.049 137.635ZM792.672 136.926C789.651 135.154 787.163 132.673 785.386 129.483C783.609 126.294 782.721 122.927 782.721 119.206C782.721 115.485 783.609 112.118 785.386 109.106C787.163 105.916 789.651 103.435 792.672 101.663C795.693 99.8912 799.069 98.828 802.8 98.828C806.354 98.828 809.731 99.714 812.751 101.663C815.772 103.435 818.26 105.916 820.037 109.106C821.814 112.295 822.703 115.662 822.703 119.206C822.703 122.927 821.814 126.294 820.037 129.483C818.26 132.673 815.95 135.154 812.751 136.926C809.731 138.698 806.354 139.761 802.8 139.761C799.069 139.761 795.693 138.875 792.672 136.926ZM813.995 131.078C817.194 127.889 818.615 123.813 818.615 119.206C818.615 114.599 817.016 110.7 813.995 107.511C810.797 104.321 807.065 102.726 802.623 102.726C798.18 102.726 794.271 104.321 791.072 107.511C787.874 110.7 786.275 114.599 786.275 119.206C786.275 123.99 787.874 127.889 791.072 131.078C794.271 134.268 798.003 135.863 802.623 135.863C807.065 135.863 810.975 134.268 813.995 131.078Z" fill="#1F1C17" />
  <path d="M1907.01 34.5046L1941.66 32.7326C1942.37 32.7326 1942.9 32.201 1942.9 31.4922L1942.73 27.9482C1942.73 27.2394 1942.02 26.885 1941.3 26.885L1906.65 29.543C1905.94 29.543 1905.41 30.0746 1905.59 30.7834L1905.77 33.4414C1905.77 33.973 1906.3 34.5046 1907.01 34.5046Z" fill="#1F1C17" />
  <path d="M144.433 32.5553C142.478 32.5553 140.346 32.0237 138.036 31.3149C135.548 30.6061 133.061 29.8973 130.395 29.8973C127.73 29.8973 123.11 30.7833 120.089 31.6693C118.845 32.0237 117.956 32.2009 117.601 32.0237C117.068 31.8465 116.712 30.2517 116.712 30.2517L116.535 29.5429C116.535 29.5429 116.002 27.9481 116.357 27.5937C116.535 27.2393 116.712 27.2393 117.956 26.8849C120.977 26.1761 126.841 24.7585 130.573 24.7585C133.771 24.7585 136.792 25.6445 139.635 26.3533C141.59 26.8849 143.367 27.4165 144.611 27.4165C147.809 27.4165 152.252 25.9989 154.206 25.2901C154.74 25.1129 154.74 25.1129 155.095 25.1129L155.273 25.6445L156.694 29.3657C156.694 29.3657 156.694 29.5429 156.694 29.7201C156.694 29.8973 156.694 29.8973 156.339 30.0745C154.74 30.6061 148.876 32.5553 144.433 32.5553Z" fill="#1F1C17" />
  <path d="M406.359 36.9854L387.345 30.6062C386.456 30.2518 385.568 30.2518 384.679 30.6062L365.844 36.9854C365.133 37.1626 364.6 36.8082 364.244 36.0994L363.356 32.9098C363.178 32.201 363.534 31.4922 364.244 31.315L383.969 24.7586C385.035 24.4042 386.812 24.227 388.233 24.7586L408.135 31.4922C408.846 31.6694 409.202 32.3782 409.024 33.087L408.135 36.2766C407.78 36.8082 407.069 37.3398 406.359 36.9854Z" fill="#1F1C17" />
  <path d="M414.355 37.6941C413.822 37.6941 413.467 37.3397 413.289 36.9853C412.045 33.4413 412.756 31.3149 413.289 29.1885C413.644 27.7709 414.355 26.7077 414.888 25.6445C415.777 24.0497 416.665 22.4549 416.665 20.3285C416.665 18.3793 415.066 16.6073 414 15.7213C413.467 15.3669 413.467 14.4809 414 14.1265L415.777 12.3546C416.132 12.0002 416.843 11.823 417.376 12.3546C418.975 13.5949 421.996 16.6073 421.996 20.5057C421.996 23.6953 420.752 25.9989 419.686 27.7709C419.153 28.6569 418.797 29.5429 418.442 30.2517C417.909 32.0237 417.731 33.9729 418.442 36.4537C418.62 37.1625 418.087 37.8713 417.376 37.8713H414.355V37.6941Z" fill="#1F1C17" />
  <path d="M74.0652 30.606H91.8349C92.368 30.606 92.7234 30.7832 93.0788 31.1376C93.4342 31.492 93.6119 31.8464 93.6119 32.378V136.04C93.6119 136.571 93.4342 136.926 93.0788 137.28C92.7234 137.634 92.368 137.812 91.8349 137.812H73.8875C73.3544 137.812 72.999 137.634 72.6436 137.28C72.2882 136.926 72.1105 136.571 72.1105 136.04V67.2863C72.1105 66.9319 71.9328 66.7547 71.7551 66.7547C71.5775 66.7547 71.3998 66.9319 71.2221 67.2863L59.1387 88.373C58.6056 89.259 58.2502 89.6134 57.8948 89.6134C57.5394 89.6134 57.184 89.259 56.6509 88.373L44.5675 67.2863C44.3898 66.9319 44.2121 66.7547 44.0344 66.7547C43.8567 66.7547 43.679 66.9319 43.679 67.2863V136.217C43.679 136.748 43.5013 137.103 43.1459 137.457C42.7905 137.812 42.4352 137.989 41.9021 137.989H23.777C23.2439 137.989 22.8885 137.812 22.5331 137.457C22.1777 137.103 22 136.748 22 136.217V32.5552C22 32.0236 22.1777 31.6692 22.5331 31.3148C22.8885 30.9604 23.2439 30.7832 23.777 30.7832H41.5467C42.6128 30.7832 43.3236 31.1376 43.8567 32.0236L57.5394 56.2999C57.8948 56.6543 58.0725 56.6543 58.4279 56.2999L71.7551 31.8464C72.1105 31.1376 72.8213 30.606 74.0652 30.606Z" fill="#1F1C17" />
  <path d="M126.131 137.457C125.775 137.103 125.597 136.749 125.597 136.217V104.498L125.42 103.612L103.918 41.061C103.741 40.8838 103.741 40.5294 103.741 40.3522C103.741 39.4662 104.274 38.9346 105.518 38.9346H124.354C125.42 38.9346 126.131 39.4662 126.486 40.5294L136.082 77.2097C136.259 77.5641 136.259 77.7413 136.615 77.7413C136.792 77.7413 136.97 77.5641 137.148 77.2097L146.388 40.5294C146.743 39.4662 147.454 38.9346 148.52 38.9346H167.356C167.889 38.9346 168.422 39.1118 168.778 39.4662C169.133 39.8206 169.133 40.3522 168.956 41.061L147.454 103.435L147.276 104.321V136.04C147.276 136.571 147.099 136.926 146.743 137.28C146.388 137.635 146.033 137.812 145.5 137.812H127.374C126.841 137.989 126.486 137.812 126.131 137.457Z" fill="#1F1C17" />
  <path d="M258.337 34.6815C262.779 37.5167 266.156 41.2379 268.643 46.1995C271.131 51.1611 272.197 56.8315 272.197 63.2107C272.197 72.7794 269.71 80.399 264.556 86.0694C259.403 91.7398 252.651 94.575 244.477 94.575H232.926C232.393 94.575 232.216 94.7522 232.216 95.2838V136.04C232.216 136.571 232.038 136.926 231.683 137.28C231.327 137.634 230.972 137.812 230.439 137.812H212.136C211.603 137.812 211.247 137.634 210.892 137.28C210.537 136.926 210.359 136.571 210.359 136.04V32.378C210.359 31.8464 210.537 31.492 210.892 31.1376C211.247 30.7832 211.603 30.606 212.136 30.606H243.233C248.919 30.606 253.895 31.8464 258.337 34.6815ZM247.498 74.0198C249.452 71.539 250.518 67.9951 250.518 63.7423C250.518 59.3123 249.452 55.7683 247.498 53.1103C245.543 50.6295 242.877 49.2119 239.501 49.2119H232.749C232.216 49.2119 232.038 49.3891 232.038 49.9207V76.855C232.038 77.3866 232.216 77.5638 232.749 77.5638H239.501C242.877 77.741 245.365 76.5006 247.498 74.0198Z" fill="#1F1C17" />
  <path d="M321.064 31.1376C321.419 30.7832 321.775 30.606 322.308 30.606H340.255C340.788 30.606 341.144 30.7832 341.499 31.1376C341.855 31.492 342.032 31.8464 342.032 32.378V136.04C342.032 136.571 341.855 136.926 341.499 137.28C341.144 137.634 340.788 137.812 340.255 137.812H322.308C321.775 137.812 321.419 137.634 321.064 137.28C320.709 136.926 320.531 136.571 320.531 136.04V94.3978C320.531 93.8662 320.353 93.689 319.82 93.689H304.361C303.827 93.689 303.65 93.8662 303.65 94.3978V136.217C303.65 136.748 303.472 137.103 303.117 137.457C302.761 137.812 302.406 137.989 301.873 137.989H283.925C283.392 137.989 283.037 137.812 282.682 137.457C282.326 137.103 282.148 136.748 282.148 136.217V32.5552C282.148 32.0236 282.326 31.6692 282.682 31.3148C283.037 30.9604 283.392 30.7832 283.925 30.7832H301.873C302.406 30.7832 302.761 30.9604 303.117 31.3148C303.472 31.6692 303.65 32.0236 303.65 32.5552V74.197C303.65 74.7286 303.827 74.9058 304.361 74.9058H319.82C320.353 74.9058 320.531 74.7286 320.531 74.197V32.5552C320.531 32.0236 320.709 31.6692 321.064 31.1376Z" fill="#1F1C17" />
  <path d="M399.073 136.394L396.585 121.687C396.585 121.155 396.23 120.978 395.697 120.978H376.15C375.617 120.978 375.262 121.155 375.262 121.687L372.774 136.394C372.596 137.457 372.063 138.166 370.819 138.166H352.872C351.45 138.166 351.095 137.457 351.272 136.217L373.84 40.5293C374.018 39.4661 374.728 38.7573 375.795 38.7573H396.585C397.651 38.7573 398.362 39.2889 398.54 40.5293L421.107 136.04L421.285 136.571C421.285 137.457 420.752 137.989 419.508 137.989H401.028C399.784 137.989 399.073 137.457 399.073 136.394ZM378.993 104.144H392.854C393.387 104.144 393.564 103.967 393.387 103.435L386.101 69.7672C385.923 69.4128 385.923 69.2356 385.568 69.2356C385.39 69.2356 385.213 69.4128 385.035 69.7672L378.105 103.435C378.282 103.967 378.46 104.144 378.993 104.144Z" fill="#1F1C17" />
  <path d="M1117.32 21.3916L1082.67 19.6196C1081.96 19.6196 1081.43 19.088 1081.43 18.3792L1081.61 14.8352C1081.61 14.1264 1082.32 13.772 1083.03 13.772L1117.68 16.43C1118.39 16.43 1118.92 16.9616 1118.75 17.6704L1118.57 20.3284C1118.57 21.0372 1118.04 21.5688 1117.32 21.3916Z" fill="#1F1C17" />
  <path d="M1120.35 36.9851L1101.33 30.6059C1100.44 30.2515 1099.55 30.2515 1098.67 30.6059L1079.83 36.9851C1079.12 37.1623 1078.59 36.8079 1078.23 36.0991L1077.34 32.9095C1077.16 32.2007 1077.52 31.4919 1078.23 31.3147L1097.96 24.7584C1099.02 24.404 1100.8 24.2268 1102.22 24.7584L1122.12 31.4919C1122.83 31.6691 1123.19 32.3779 1123.01 33.0867L1122.12 36.2763C1121.77 36.8079 1121.06 37.3395 1120.35 36.9851Z" fill="#1F1C17" />
  <path d="M1113.06 136.394L1110.57 121.687C1110.57 121.155 1110.22 120.978 1109.68 120.978H1090.14C1089.6 120.978 1089.25 121.155 1089.25 121.687L1086.76 136.394C1086.58 137.457 1086.05 138.166 1084.81 138.166H1066.86C1065.44 138.166 1065.08 137.457 1065.26 136.217L1087.83 40.7063C1088 39.6431 1088.72 38.9343 1089.78 38.9343H1110.57C1111.64 38.9343 1112.35 39.4659 1112.53 40.7063L1134.92 136.04L1135.09 136.571C1135.09 137.457 1134.56 137.989 1133.32 137.989H1114.84C1113.77 137.989 1113.06 137.457 1113.06 136.394ZM1092.8 104.144H1106.66C1107.2 104.144 1107.37 103.967 1107.2 103.435L1099.91 69.767C1099.73 69.4126 1099.73 69.2354 1099.38 69.2354C1099.2 69.2354 1099.02 69.4126 1098.84 69.767L1091.91 103.435C1092.27 103.967 1092.45 104.144 1092.8 104.144Z" fill="#1F1C17" />
  <path d="M2578.17 21.3916L2543.52 19.6196C2542.81 19.6196 2542.28 19.088 2542.28 18.3792L2542.45 14.8352C2542.45 14.1264 2543.16 13.772 2543.88 13.772L2578.53 16.43C2579.24 16.43 2579.77 16.9616 2579.59 17.6704L2579.41 20.3284C2579.41 21.0372 2578.88 21.5688 2578.17 21.3916Z" fill="#1F1C17" />
  <path d="M2581.19 36.9851L2562.18 30.6059C2561.29 30.2515 2560.4 30.2515 2559.51 30.6059L2540.68 36.9851C2539.97 37.1623 2539.43 36.8079 2539.08 36.0991L2538.19 32.9095C2538.01 32.2007 2538.37 31.4919 2539.08 31.3147L2558.8 24.7584C2559.87 24.404 2561.65 24.2268 2563.07 24.7584L2582.97 31.4919C2583.68 31.6691 2584.03 32.3779 2583.86 33.0867L2582.97 36.2763C2582.61 36.8079 2581.9 37.3395 2581.19 36.9851Z" fill="#1F1C17" />
  <path d="M2573.91 136.394L2571.42 121.687C2571.42 121.155 2571.06 120.978 2570.53 120.978H2550.98C2550.45 120.978 2550.09 121.155 2550.09 121.687L2547.61 136.394C2547.43 137.457 2546.9 138.166 2545.65 138.166H2527.53C2526.11 138.166 2525.75 137.457 2525.93 136.217L2548.5 40.7063C2548.67 39.6431 2549.38 38.9343 2550.45 38.9343H2571.24C2572.31 38.9343 2573.02 39.4659 2573.2 40.7063L2595.59 136.217L2595.76 136.748C2595.76 137.634 2595.23 138.166 2593.99 138.166H2575.51C2574.62 137.989 2573.91 137.457 2573.91 136.394ZM2553.65 104.144H2567.51C2568.04 104.144 2568.22 103.967 2568.04 103.435L2560.76 69.767C2560.58 69.4126 2560.58 69.2354 2560.22 69.2354C2560.05 69.2354 2559.87 69.4126 2559.69 69.767L2552.76 103.435C2553.12 103.967 2553.29 104.144 2553.65 104.144Z" fill="#1F1C17" />
  <path d="M481.524 30.606H499.294C499.827 30.606 500.183 30.7832 500.538 31.1376C500.893 31.492 501.071 31.8464 501.071 32.378V136.04C501.071 136.571 500.893 136.926 500.538 137.28C500.183 137.634 499.827 137.812 499.294 137.812H481.347C480.814 137.812 480.458 137.634 480.103 137.28C479.747 136.926 479.57 136.571 479.57 136.04V67.2863C479.57 66.9319 479.392 66.7547 479.214 66.7547C479.037 66.7547 478.859 66.9319 478.681 67.2863L466.598 88.373C466.065 89.259 465.709 89.6134 465.354 89.6134C464.999 89.6134 464.643 89.259 464.11 88.373L452.027 67.2863C451.849 66.9319 451.671 66.7547 451.494 66.7547C451.316 66.7547 451.138 66.9319 451.138 67.2863V136.217C451.138 136.748 450.961 137.103 450.605 137.457C450.25 137.812 449.894 137.989 449.361 137.989H431.414C430.881 137.989 430.525 137.812 430.17 137.457C429.815 137.103 429.637 136.748 429.637 136.217V32.5552C429.637 32.0236 429.815 31.6692 430.17 31.3148C430.525 30.9604 430.881 30.7832 431.414 30.7832H449.184C450.25 30.7832 450.961 31.1376 451.494 32.0236L465.176 56.4771C465.532 56.8315 465.709 56.8315 466.065 56.4771L479.214 32.0236C479.57 31.1376 480.458 30.606 481.524 30.606Z" fill="#1F1C17" />
  <path d="M555.98 30.606H574.638C575.171 30.606 575.526 30.7832 575.882 31.1376C576.237 31.492 576.415 31.8464 576.415 32.378V136.04C576.415 136.571 576.237 136.926 575.882 137.28C575.526 137.634 575.171 137.812 574.638 137.812H556.69C556.157 137.812 555.802 137.634 555.446 137.28C555.091 136.926 554.913 136.571 554.913 136.04V52.4015C554.913 52.0471 554.736 51.8699 554.203 51.8699L542.297 53.2875H541.941C540.875 53.2875 540.164 52.7559 540.164 51.5155L539.631 38.4027C539.631 37.3395 540.164 36.6307 541.053 36.2763L553.669 31.1376C554.558 30.7832 555.269 30.606 555.98 30.606Z" fill="#1F1C17" />
  <path d="M594.895 131.255C589.386 125.585 586.543 118.143 586.543 108.751V60.0211C586.543 50.6296 589.386 43.1872 594.895 37.5168C600.404 31.8464 607.689 29.0112 616.752 29.0112C622.616 29.0112 627.947 30.2516 632.567 32.9096C637.187 35.3904 640.741 39.1116 643.229 43.7188C645.716 48.5032 646.96 53.8192 646.96 60.0211V108.751C646.96 114.953 645.716 120.269 643.229 125.053C640.741 129.838 637.187 133.382 632.567 135.863C627.947 138.343 622.616 139.761 616.752 139.761C607.689 139.761 600.404 136.926 594.895 131.255ZM622.971 118.143C624.57 116.016 625.281 113.358 625.281 109.991V58.7807C625.281 55.414 624.57 52.756 622.971 50.6296C621.372 48.5032 619.239 47.6172 616.752 47.6172C614.264 47.6172 612.132 48.6804 610.532 50.6296C608.933 52.756 608.222 55.414 608.222 58.7807V109.991C608.222 113.358 608.933 116.016 610.532 118.143C612.132 120.269 614.086 121.155 616.752 121.155C619.239 121.155 621.372 120.092 622.971 118.143Z" fill="#1F1C17" />
  <path d="M664.552 131.255C659.044 125.585 656.201 118.143 656.201 108.751V60.0211C656.201 50.6296 659.044 43.1872 664.552 37.5168C670.061 31.8464 677.347 29.0112 686.409 29.0112C692.273 29.0112 697.604 30.2516 702.224 32.9096C706.844 35.3904 710.398 39.1116 712.886 43.7188C715.374 48.5032 716.618 53.8192 716.618 60.0211V108.751C716.618 114.953 715.374 120.269 712.886 125.053C710.398 129.838 706.844 133.382 702.224 135.863C697.604 138.343 692.273 139.761 686.409 139.761C677.347 139.761 670.061 136.926 664.552 131.255ZM692.629 118.143C694.228 116.016 694.939 113.358 694.939 109.991V58.7807C694.939 55.414 694.228 52.756 692.629 50.6296C691.029 48.5032 688.897 47.6172 686.409 47.6172C683.921 47.6172 681.789 48.6804 680.19 50.6296C678.59 52.756 677.88 55.414 677.88 58.7807V109.991C677.88 113.358 678.59 116.016 680.19 118.143C681.789 120.269 683.744 121.155 686.409 121.155C689.075 121.155 691.029 120.092 692.629 118.143Z" fill="#1F1C17" />
  <path d="M913.328 31.1377C913.683 31.4921 913.861 31.8465 913.861 32.3781V47.4401C913.861 47.9717 913.683 48.3261 913.328 48.6805C912.972 49.0349 912.617 49.2121 912.084 49.2121H892.893C892.36 49.2121 892.182 49.3893 892.182 49.9209V136.217C892.182 136.749 892.004 137.103 891.649 137.457C891.293 137.812 890.938 137.989 890.405 137.989H872.458C871.925 137.989 871.569 137.812 871.214 137.457C870.858 137.103 870.681 136.749 870.681 136.217V50.0981C870.681 49.5665 870.503 49.3893 869.97 49.3893H851.489C850.956 49.3893 850.601 49.2121 850.246 48.8577C849.89 48.5033 849.712 48.1489 849.712 47.6173V32.7325C849.712 32.2009 849.89 31.8465 850.246 31.4921C850.601 31.1377 850.956 30.9605 851.489 30.9605H912.439C912.617 30.6061 912.972 30.7833 913.328 31.1377Z" fill="#1F1C17" />
  <path d="M963.439 31.1376C963.794 30.7832 964.149 30.606 964.683 30.606H982.63C983.163 30.606 983.518 30.7832 983.874 31.1376C984.229 31.492 984.407 31.8464 984.407 32.378V136.04C984.407 136.571 984.229 136.926 983.874 137.28C983.518 137.634 983.163 137.812 982.63 137.812H964.683C964.149 137.812 963.794 137.634 963.439 137.28C963.083 136.926 962.906 136.571 962.906 136.04V94.3978C962.906 93.8662 962.728 93.689 962.195 93.689H946.735C946.202 93.689 946.024 93.8662 946.024 94.3978V136.217C946.024 136.748 945.847 137.103 945.491 137.457C945.136 137.812 944.78 137.989 944.247 137.989H926.3C925.767 137.989 925.411 137.812 925.056 137.457C924.701 137.103 924.523 136.748 924.523 136.217V32.5552C924.523 32.0236 924.701 31.6692 925.056 31.3148C925.411 30.9604 925.767 30.7832 926.3 30.7832H944.247C944.78 30.7832 945.136 30.9604 945.491 31.3148C945.847 31.6692 946.024 32.0236 946.024 32.5552V74.197C946.024 74.7286 946.202 74.9058 946.735 74.9058H962.195C962.728 74.9058 962.906 74.7286 962.906 74.197V32.5552C962.906 32.0236 963.083 31.6692 963.439 31.1376Z" fill="#1F1C17" />
  <path d="M1006.09 130.547C1000.58 124.699 997.734 117.079 997.734 107.511V32.5552C997.734 32.0236 997.912 31.6692 998.267 31.3148C998.622 30.9604 998.978 30.7832 999.511 30.7832H1017.46C1017.99 30.7832 1018.35 30.9604 1018.7 31.3148C1019.06 31.6692 1019.24 32.0236 1019.24 32.5552V109.637C1019.24 112.827 1020.12 115.485 1021.72 117.611C1023.32 119.737 1025.45 120.623 1028.12 120.623C1030.79 120.623 1032.92 119.56 1034.52 117.611C1036.12 115.485 1036.83 112.827 1036.83 109.637V32.5552C1036.83 32.0236 1037.01 31.6692 1037.36 31.3148C1037.72 30.9604 1038.07 30.7832 1038.6 30.7832H1056.55C1057.08 30.7832 1057.44 30.9604 1057.8 31.3148C1058.15 31.6692 1058.33 32.0236 1058.33 32.5552V107.511C1058.33 117.079 1055.49 124.876 1049.98 130.547C1044.47 136.394 1037 139.229 1027.94 139.229C1019.06 139.229 1011.77 136.394 1006.09 130.547Z" fill="#1F1C17" />
  <path d="M1188.4 31.1376C1188.76 30.7832 1189.11 30.606 1189.65 30.606H1207.42C1207.95 30.606 1208.3 30.7832 1208.66 31.1376C1209.02 31.492 1209.19 31.8464 1209.19 32.378V136.04C1209.19 136.571 1209.02 136.926 1208.66 137.28C1208.3 137.634 1207.95 137.812 1207.42 137.812H1187.16C1186.09 137.812 1185.38 137.28 1185.2 136.217L1166.19 76.855C1166.01 76.5006 1165.84 76.5006 1165.66 76.5006C1165.48 76.5006 1165.3 76.6778 1165.3 77.0322L1165.48 135.862C1165.48 136.394 1165.3 136.748 1164.95 137.103C1164.59 137.457 1164.24 137.634 1163.7 137.634H1145.93C1145.4 137.634 1145.04 137.457 1144.69 137.103C1144.33 136.748 1144.16 136.394 1144.16 135.862V32.5552C1144.16 32.0236 1144.33 31.6692 1144.69 31.3148C1145.04 30.9604 1145.4 30.7832 1145.93 30.7832H1166.01C1167.08 30.7832 1167.79 31.3148 1167.97 32.378L1187.16 91.7398C1187.34 92.0942 1187.51 92.0942 1187.69 92.0942C1187.87 92.0942 1188.05 91.917 1188.05 91.5626L1187.87 32.7324C1187.87 32.0236 1188.05 31.6692 1188.4 31.1376Z" fill="#1F1C17" />
  <path d="M1260.55 131.078C1255.04 125.585 1252.2 118.32 1252.2 109.105V59.3124C1252.2 50.2753 1255.04 43.0101 1260.55 37.5169C1266.06 32.0237 1273.52 29.3657 1282.76 29.3657C1292.18 29.3657 1299.64 32.0237 1305.15 37.5169C1310.66 43.0101 1313.5 50.2753 1313.5 59.3124V61.0844C1313.5 61.616 1313.32 61.9704 1312.97 62.3248C1312.61 62.6792 1312.26 62.8564 1311.72 62.8564L1293.78 63.5652C1292.53 63.5652 1292 63.0336 1292 61.7932V58.072C1292 55.0597 1291.11 52.7561 1289.51 50.8069C1287.91 49.0349 1285.6 47.9717 1282.94 47.9717C1280.27 47.9717 1278.14 48.8577 1276.54 50.8069C1274.94 52.5789 1274.05 55.0597 1274.05 58.072V111.055C1274.05 114.067 1274.94 116.371 1276.54 118.143C1278.14 119.915 1280.27 120.801 1282.94 120.801C1285.78 120.801 1287.91 119.915 1289.51 118.143C1291.11 116.371 1292 113.89 1292 111.055V106.979C1292 106.448 1292.18 106.093 1292.53 105.739C1292.89 105.384 1293.24 105.207 1293.78 105.207L1311.72 105.916C1312.26 105.916 1312.61 106.093 1312.97 106.448C1313.32 106.802 1313.5 107.156 1313.5 107.688V109.283C1313.5 118.497 1310.66 125.762 1304.97 131.255C1299.29 136.749 1291.82 139.407 1282.58 139.407C1273.52 139.229 1266.23 136.571 1260.55 131.078Z" fill="#1F1C17" />
  <path d="M1364.32 31.1376C1364.68 30.7832 1365.03 30.606 1365.57 30.606H1383.51C1384.05 30.606 1384.4 30.7832 1384.76 31.1376C1385.11 31.492 1385.29 31.8464 1385.29 32.378V136.04C1385.29 136.571 1385.11 136.926 1384.76 137.28C1384.4 137.634 1384.05 137.812 1383.51 137.812H1365.57C1365.03 137.812 1364.68 137.634 1364.32 137.28C1363.97 136.926 1363.79 136.571 1363.79 136.04V94.3978C1363.79 93.8662 1363.61 93.689 1363.08 93.689H1347.62C1347.09 93.689 1346.91 93.8662 1346.91 94.3978V136.217C1346.91 136.748 1346.73 137.103 1346.38 137.457C1346.02 137.812 1345.66 137.989 1345.13 137.989H1327.18C1326.65 137.989 1326.3 137.812 1325.94 137.457C1325.58 137.103 1325.41 136.748 1325.41 136.217V32.5552C1325.41 32.0236 1325.58 31.6692 1325.94 31.3148C1326.3 30.9604 1326.65 30.7832 1327.18 30.7832H1345.13C1345.66 30.7832 1346.02 30.9604 1346.38 31.3148C1346.73 31.6692 1346.91 32.0236 1346.91 32.5552V74.197C1346.91 74.7286 1347.09 74.9058 1347.62 74.9058H1363.08C1363.61 74.9058 1363.79 74.7286 1363.79 74.197V32.5552C1363.79 32.0236 1363.97 31.6692 1364.32 31.1376Z" fill="#1F1C17" />
  <path d="M1442.15 136.394L1439.67 121.687C1439.67 121.155 1439.31 120.978 1438.78 120.978H1419.23C1418.7 120.978 1418.34 121.155 1418.34 121.687L1415.86 136.394C1415.68 137.457 1415.14 138.166 1413.9 138.166H1395.95C1394.53 138.166 1394.18 137.457 1394.35 136.217L1416.92 32.378C1417.1 31.3148 1417.81 30.606 1418.88 30.606H1439.67C1440.73 30.606 1441.44 31.1376 1441.62 32.378L1464.19 136.04L1464.37 136.571C1464.37 137.457 1463.83 137.989 1462.59 137.989H1444.11C1443.04 137.989 1442.33 137.457 1442.15 136.394ZM1422.07 104.144H1435.93C1436.47 104.144 1436.65 103.967 1436.47 103.435L1429.18 61.6159C1429 61.2615 1429 61.0843 1428.65 61.0843C1428.47 61.0843 1428.29 61.2615 1428.12 61.6159L1421.19 103.435C1421.36 103.967 1421.54 104.144 1422.07 104.144Z" fill="#1F1C17" />
  <path d="M1483.74 137.457C1483.38 137.103 1483.2 136.749 1483.2 136.217V96.1698L1483.02 95.2838L1461.52 32.9096C1461.35 32.7324 1461.35 32.378 1461.35 32.2008C1461.35 31.3148 1461.88 30.7832 1463.12 30.7832H1481.96C1483.02 30.7832 1483.74 31.3148 1484.09 32.378L1493.69 69.0583C1493.86 69.4127 1493.86 69.5899 1494.22 69.5899C1494.4 69.5899 1494.57 69.4127 1494.75 69.0583L1504.35 32.378C1504.7 31.3148 1505.41 30.7832 1506.48 30.7832H1525.32C1525.85 30.7832 1526.38 30.9604 1526.74 31.3148C1527.09 31.6692 1527.09 32.2008 1526.92 32.9096L1505.06 95.2838L1504.88 96.1698V136.04C1504.88 136.571 1504.7 136.926 1504.35 137.28C1503.99 137.635 1503.64 137.812 1503.1 137.812H1485.16C1484.62 137.989 1484.09 137.812 1483.74 137.457Z" fill="#1F1C17" />
  <path d="M1575.07 131.078C1569.56 125.585 1566.72 118.32 1566.72 109.105V59.3124C1566.72 50.2753 1569.56 43.0101 1575.07 37.5169C1580.58 32.0237 1588.04 29.3657 1597.28 29.3657C1606.7 29.3657 1614.16 32.0237 1619.67 37.5169C1625.18 43.0101 1628.03 50.2753 1628.03 59.3124V61.0844C1628.03 61.616 1627.85 61.9704 1627.49 62.3248C1627.14 62.6792 1626.78 62.8564 1626.25 62.8564L1608.3 63.5652C1607.06 63.5652 1606.52 63.0336 1606.52 61.7932V58.072C1606.52 55.0597 1605.64 52.7561 1604.04 50.8069C1602.44 49.0349 1600.13 47.9717 1597.46 47.9717C1594.8 47.9717 1592.66 48.8577 1591.06 50.8069C1589.46 52.5789 1588.58 55.0597 1588.58 58.072V111.055C1588.58 114.067 1589.46 116.371 1591.06 118.143C1592.66 119.915 1594.8 120.801 1597.46 120.801C1600.3 120.801 1602.44 119.915 1604.04 118.143C1605.64 116.371 1606.52 113.89 1606.52 111.055V106.979C1606.52 106.448 1606.7 106.093 1607.06 105.739C1607.41 105.384 1607.77 105.207 1608.3 105.207L1626.25 105.916C1626.78 105.916 1627.14 106.093 1627.49 106.448C1627.85 106.802 1628.03 107.156 1628.03 107.688V109.283C1628.03 118.497 1625.18 125.762 1619.5 131.255C1613.81 136.749 1606.35 139.407 1597.11 139.407C1588.04 139.229 1580.58 136.571 1575.07 131.078Z" fill="#1F1C17" />
  <path d="M1678.67 31.1376C1679.02 30.7832 1679.38 30.606 1679.91 30.606H1697.86C1698.39 30.606 1698.75 30.7832 1699.1 31.1376C1699.46 31.492 1699.64 31.8464 1699.64 32.378V136.04C1699.64 136.571 1699.46 136.926 1699.1 137.28C1698.75 137.634 1698.39 137.812 1697.86 137.812H1679.91C1679.38 137.812 1679.02 137.634 1678.67 137.28C1678.31 136.926 1678.14 136.571 1678.14 136.04V94.3978C1678.14 93.8662 1677.96 93.689 1677.42 93.689H1661.97C1661.43 93.689 1661.25 93.8662 1661.25 94.3978V136.217C1661.25 136.748 1661.08 137.103 1660.72 137.457C1660.37 137.812 1660.01 137.989 1659.48 137.989H1641.53C1641 137.989 1640.64 137.812 1640.29 137.457C1639.93 137.103 1639.75 136.748 1639.75 136.217V32.5552C1639.75 32.0236 1639.93 31.6692 1640.29 31.3148C1640.64 30.9604 1641 30.7832 1641.53 30.7832H1659.48C1660.01 30.7832 1660.37 30.9604 1660.72 31.3148C1661.08 31.6692 1661.25 32.0236 1661.25 32.5552V74.197C1661.25 74.7286 1661.43 74.9058 1661.97 74.9058H1677.42C1677.96 74.9058 1678.14 74.7286 1678.14 74.197V32.5552C1678.14 32.0236 1678.31 31.6692 1678.67 31.1376Z" fill="#1F1C17" />
  <path d="M1720.25 131.078C1714.56 125.585 1711.72 118.143 1711.72 108.928V59.844C1711.72 50.6297 1714.56 43.3645 1720.25 37.6941C1725.94 32.2009 1733.4 29.3657 1742.82 29.3657C1752.24 29.3657 1759.88 32.2009 1765.56 37.6941C1771.25 43.1873 1774.09 50.6297 1774.09 59.844V108.928C1774.09 118.143 1771.25 125.408 1765.56 131.078C1759.88 136.571 1752.24 139.407 1742.82 139.407C1733.58 139.229 1725.94 136.571 1720.25 131.078ZM1749.93 117.788C1751.7 115.839 1752.59 113.181 1752.59 109.814V58.958C1752.59 55.7684 1751.7 53.1105 1749.93 50.9841C1748.15 49.0349 1745.84 47.9717 1743 47.9717C1740.15 47.9717 1737.84 49.0349 1736.06 50.9841C1734.29 52.9333 1733.58 55.5912 1733.58 58.958V109.814C1733.58 113.004 1734.47 115.662 1736.06 117.788C1737.84 119.737 1739.97 120.801 1743 120.801C1745.84 120.801 1748.15 119.737 1749.93 117.788Z" fill="#1F1C17" />
  <path d="M1861.52 31.1376C1861.87 30.7832 1862.23 30.606 1862.76 30.606H1880.53C1881.07 30.606 1881.42 30.7832 1881.78 31.1376C1882.13 31.492 1882.31 31.8464 1882.31 32.378V136.04C1882.31 136.571 1882.13 136.926 1881.78 137.28C1881.42 137.634 1881.07 137.812 1880.53 137.812H1860.28C1859.21 137.812 1858.5 137.28 1858.32 136.217L1839.31 76.855C1839.13 76.5006 1838.95 76.5006 1838.77 76.5006C1838.6 76.5006 1838.42 76.6778 1838.42 77.0322L1838.6 135.862C1838.6 136.394 1838.42 136.748 1838.06 137.103C1837.71 137.457 1837.35 137.634 1836.82 137.634H1819.05C1818.52 137.634 1818.16 137.457 1817.81 137.103C1817.45 136.748 1817.27 136.394 1817.27 135.862V32.5552C1817.27 32.0236 1817.45 31.6692 1817.81 31.3148C1818.16 30.9604 1818.52 30.7832 1819.05 30.7832H1839.13C1840.2 30.7832 1840.91 31.3148 1841.08 32.378L1860.28 91.7398C1860.45 92.0942 1860.63 92.0942 1860.81 92.0942C1860.99 92.0942 1861.16 91.917 1861.16 91.5626L1860.99 32.7324C1860.99 32.0236 1861.16 31.6692 1861.52 31.1376Z" fill="#1F1C17" />
  <path d="M1951.97 57.0089C1951.61 57.3633 1951.26 57.5405 1950.72 57.5405H1918.56C1918.03 57.5405 1917.85 57.7177 1917.85 58.2493V78.6273C1917.85 79.1589 1918.03 79.3361 1918.56 79.3361H1937.04C1937.57 79.3361 1937.93 79.5133 1938.28 79.8677C1938.64 80.2221 1938.82 80.5765 1938.82 81.1081V95.9928C1938.82 96.5244 1938.64 96.8788 1938.28 97.2332C1937.93 97.5876 1937.57 97.7648 1937.04 97.7648H1918.56C1918.03 97.7648 1917.85 97.942 1917.85 98.4736V118.497C1917.85 119.029 1918.03 119.206 1918.56 119.206H1950.72C1951.26 119.206 1951.61 119.383 1951.97 119.738C1952.32 120.092 1952.5 120.446 1952.5 120.978V135.863C1952.5 136.394 1952.32 136.749 1951.97 137.103C1951.61 137.457 1951.26 137.635 1950.72 137.635H1897.95C1897.41 137.635 1897.06 137.457 1896.7 137.103C1896.35 136.749 1896.17 136.394 1896.17 135.863V40.7066C1896.17 40.175 1896.35 39.8206 1896.7 39.4662C1897.06 39.1118 1897.41 38.9346 1897.95 38.9346H1950.72C1951.26 38.9346 1951.61 39.1118 1951.97 39.4662C1952.32 39.8206 1952.5 40.175 1952.5 40.7066V55.5913C1952.5 56.1229 1952.32 56.6545 1951.97 57.0089Z" fill="#1F1C17" />
  <path d="M2024.47 31.1377C2024.82 31.4921 2025 31.8465 2025 32.3781V47.4401C2025 47.9717 2024.82 48.3261 2024.47 48.6805C2024.11 49.0349 2023.76 49.2121 2023.22 49.2121H2004.03C2003.5 49.2121 2003.32 49.3893 2003.32 49.9209V136.217C2003.32 136.749 2003.14 137.103 2002.79 137.457C2002.43 137.812 2002.08 137.989 2001.54 137.989H1983.6C1983.06 137.989 1982.71 137.812 1982.35 137.457C1982 137.103 1981.82 136.749 1981.82 136.217V50.0981C1981.82 49.5665 1981.64 49.3893 1981.11 49.3893H1962.63C1962.1 49.3893 1961.74 49.2121 1961.38 48.8577C1961.03 48.5033 1960.85 48.1489 1960.85 47.6173V32.7325C1960.85 32.2009 1961.03 31.8465 1961.38 31.4921C1961.74 31.1377 1962.1 30.9605 1962.63 30.9605H2023.58C2023.58 30.6061 2024.11 30.7833 2024.47 31.1377Z" fill="#1F1C17" />
  <path d="M2123.09 38.7572C2128.78 44.2504 2131.62 51.3384 2131.62 60.3755V108.219C2131.62 117.257 2128.78 124.345 2123.09 129.838C2117.4 135.331 2109.94 137.989 2100.7 137.989H2072.8C2072.27 137.989 2071.91 137.812 2071.56 137.457C2071.2 137.103 2071.02 136.749 2071.02 136.217V88.9047C2071.02 88.3731 2070.85 88.1959 2070.31 88.1959H2068.18C2067.65 88.1959 2067.29 88.0187 2066.94 87.6643C2066.58 87.3099 2066.4 86.9555 2066.4 86.4239V77.5639C2066.4 77.0323 2066.58 76.6779 2066.94 76.3235C2067.29 75.9691 2067.65 75.7919 2068.18 75.7919H2070.31C2070.85 75.7919 2071.02 75.6147 2071.02 75.0831V32.5552C2071.02 32.0236 2071.2 31.6692 2071.56 31.3148C2071.91 30.9604 2072.27 30.7832 2072.8 30.7832H2100.7C2109.94 30.606 2117.4 33.4412 2123.09 38.7572ZM2109.76 61.7931C2109.76 58.0719 2108.87 54.8824 2107.1 52.5788C2105.32 50.2752 2102.83 49.212 2099.99 49.212H2093.41C2092.88 49.212 2092.7 49.3892 2092.7 49.9208V74.7287C2092.7 75.2603 2092.88 75.4375 2093.41 75.4375H2099.1C2099.63 75.4375 2099.99 75.6147 2100.34 75.9691C2100.7 76.3235 2100.88 76.6779 2100.88 77.2095V85.8923C2100.88 86.4239 2100.7 86.7783 2100.34 87.1327C2099.99 87.4871 2099.63 87.6643 2099.1 87.6643H2093.41C2092.88 87.6643 2092.7 87.8415 2092.7 88.3731V118.32C2092.7 118.851 2092.88 119.029 2093.41 119.029L2100.17 118.851C2103.01 118.674 2105.14 117.611 2107.1 115.485C2108.87 113.358 2109.76 110.346 2109.94 106.447V61.7931H2109.76Z" fill="#1F1C17" />
  <path d="M2199.5 48.6804C2199.14 49.0348 2198.79 49.212 2198.25 49.212H2166.09C2165.56 49.212 2165.38 49.3892 2165.38 49.9207V74.1971C2165.38 74.7287 2165.56 74.9059 2166.09 74.9059H2184.57C2185.11 74.9059 2185.46 75.0831 2185.82 75.4375C2186.17 75.7919 2186.35 76.1463 2186.35 76.6779V91.7398C2186.35 92.2714 2186.17 92.6258 2185.82 92.9802C2185.46 93.3346 2185.11 93.5118 2184.57 93.5118H2166.09C2165.56 93.5118 2165.38 93.689 2165.38 94.2206V118.674C2165.38 119.206 2165.56 119.383 2166.09 119.383H2198.25C2198.79 119.383 2199.14 119.56 2199.5 119.915C2199.85 120.269 2200.03 120.623 2200.03 121.155V136.04C2200.03 136.571 2199.85 136.926 2199.5 137.28C2199.14 137.635 2198.79 137.812 2198.25 137.812H2145.48C2144.95 137.812 2144.59 137.635 2144.24 137.28C2143.88 136.926 2143.7 136.571 2143.7 136.04V32.5552C2143.7 32.0236 2143.88 31.6692 2144.24 31.3148C2144.59 30.9604 2144.95 30.7832 2145.48 30.7832H2198.25C2198.79 30.7832 2199.14 30.9604 2199.5 31.3148C2199.85 31.6692 2200.03 32.0236 2200.03 32.5552V47.44C2200.03 47.9716 2199.85 48.326 2199.5 48.6804Z" fill="#1F1C17" />
  <path d="M2258.85 34.6815C2263.29 37.5167 2266.67 41.2379 2269.16 46.1995C2271.64 51.1611 2272.71 56.8315 2272.71 63.2107C2272.71 72.7794 2270.22 80.399 2265.07 86.0694C2259.92 91.7398 2253.16 94.575 2244.99 94.575H2233.44C2232.91 94.575 2232.73 94.7522 2232.73 95.2838V136.04C2232.73 136.571 2232.55 136.926 2232.19 137.28C2231.84 137.634 2231.48 137.812 2230.95 137.812H2213C2212.47 137.812 2212.12 137.634 2211.76 137.28C2211.4 136.926 2211.23 136.571 2211.23 136.04V32.378C2211.23 31.8464 2211.4 31.492 2211.76 31.1376C2212.12 30.7832 2212.47 30.606 2213 30.606H2244.1C2249.25 30.606 2254.41 31.8464 2258.85 34.6815ZM2248.01 74.0198C2249.96 71.539 2251.03 67.9951 2251.03 63.7423C2251.03 59.3123 2249.96 55.7683 2248.01 53.1103C2246.06 50.6295 2243.39 49.2119 2240.01 49.2119H2233.26C2232.73 49.2119 2232.55 49.3891 2232.55 49.9207V76.855C2232.55 77.3866 2232.73 77.5638 2233.26 77.5638H2240.01C2243.21 77.741 2245.88 76.5006 2248.01 74.0198Z" fill="#1F1C17" />
  <path d="M2374.17 31.1377C2374.53 31.4921 2374.71 31.8465 2374.71 32.3781V47.4401C2374.71 47.9717 2374.53 48.3261 2374.17 48.6805C2373.82 49.0349 2373.46 49.2121 2372.93 49.2121H2353.74C2353.21 49.2121 2353.03 49.3893 2353.03 49.9209V136.217C2353.03 136.749 2352.85 137.103 2352.5 137.457C2352.14 137.812 2351.79 137.989 2351.25 137.989H2333.3C2332.77 137.989 2332.42 137.812 2332.06 137.457C2331.71 137.103 2331.53 136.749 2331.53 136.217V50.0981C2331.53 49.5665 2331.35 49.3893 2330.82 49.3893H2312.34C2311.8 49.3893 2311.45 49.2121 2311.09 48.8577C2310.74 48.5033 2310.56 48.1489 2310.56 47.6173V32.7325C2310.56 32.2009 2310.74 31.8465 2311.09 31.4921C2311.45 31.1377 2311.8 30.9605 2312.34 30.9605H2373.29C2373.46 30.6061 2373.82 30.7833 2374.17 31.1377Z" fill="#1F1C17" />
  <path d="M2424.46 31.1376C2424.82 30.7832 2425.17 30.606 2425.71 30.606H2443.65C2444.19 30.606 2444.54 30.7832 2444.9 31.1376C2445.25 31.492 2445.43 31.8464 2445.43 32.378V136.04C2445.43 136.571 2445.25 136.926 2444.9 137.28C2444.54 137.634 2444.19 137.812 2443.65 137.812H2425.71C2425.17 137.812 2424.82 137.634 2424.46 137.28C2424.11 136.926 2423.93 136.571 2423.93 136.04V94.3978C2423.93 93.8662 2423.75 93.689 2423.22 93.689H2407.76C2407.23 93.689 2407.05 93.8662 2407.05 94.3978V136.217C2407.05 136.748 2406.87 137.103 2406.52 137.457C2406.16 137.812 2405.8 137.989 2405.27 137.989H2387.15C2386.61 137.989 2386.26 137.812 2385.9 137.457C2385.55 137.103 2385.37 136.748 2385.37 136.217V32.5552C2385.37 32.0236 2385.55 31.6692 2385.9 31.3148C2386.26 30.9604 2386.61 30.7832 2387.15 30.7832H2405.09C2405.63 30.7832 2405.98 30.9604 2406.34 31.3148C2406.69 31.6692 2406.87 32.0236 2406.87 32.5552V74.197C2406.87 74.7286 2407.05 74.9058 2407.58 74.9058H2423.04C2423.57 74.9058 2423.75 74.7286 2423.75 74.197V32.5552C2423.75 32.0236 2423.93 31.6692 2424.46 31.1376Z" fill="#1F1C17" />
  <path d="M2466.93 130.547C2461.42 124.699 2458.58 117.079 2458.58 107.511V32.5552C2458.58 32.0236 2458.76 31.6692 2459.11 31.3148C2459.47 30.9604 2459.82 30.7832 2460.36 30.7832H2478.31C2478.84 30.7832 2479.19 30.9604 2479.55 31.3148C2479.9 31.6692 2480.08 32.0236 2480.08 32.5552V109.637C2480.08 112.827 2480.97 115.485 2482.57 117.611C2484.17 119.737 2486.3 120.623 2488.97 120.623C2491.63 120.623 2493.77 119.56 2495.36 117.611C2496.96 115.485 2497.67 112.827 2497.67 109.637V32.5552C2497.67 32.0236 2497.85 31.6692 2498.21 31.3148C2498.56 30.9604 2498.92 30.7832 2499.45 30.7832H2517.4C2517.93 30.7832 2518.29 30.9604 2518.64 31.3148C2519 31.6692 2519.18 32.0236 2519.18 32.5552V107.511C2519.18 117.079 2516.33 124.876 2510.82 130.547C2505.32 136.394 2497.85 139.229 2488.79 139.229C2479.9 139.229 2472.62 136.394 2466.93 130.547Z" fill="#1F1C17" />
  <path d="M2649.25 31.1376C2649.61 30.7832 2649.96 30.606 2650.49 30.606H2668.26C2668.8 30.606 2669.15 30.7832 2669.51 31.1376C2669.86 31.492 2670.04 31.8464 2670.04 32.378V136.04C2670.04 136.571 2669.86 136.926 2669.51 137.28C2669.15 137.634 2668.8 137.812 2668.26 137.812H2648.01C2646.94 137.812 2646.23 137.28 2646.05 136.217L2627.04 77.2094C2626.86 76.855 2626.68 76.855 2626.5 76.855C2626.33 76.855 2626.15 77.0322 2626.15 77.3866L2626.33 136.217C2626.33 136.748 2626.15 137.103 2625.79 137.457C2625.44 137.812 2625.08 137.989 2624.55 137.989H2606.78C2606.25 137.989 2605.89 137.812 2605.54 137.457C2605.18 137.103 2605 136.748 2605 136.217V32.5552C2605 32.0236 2605.18 31.6692 2605.54 31.3148C2605.89 30.9604 2606.25 30.7832 2606.78 30.7832H2626.86C2627.93 30.7832 2628.64 31.3148 2628.81 32.378L2648.01 91.7398C2648.18 92.0942 2648.36 92.0942 2648.54 92.0942C2648.72 92.0942 2648.89 91.917 2648.89 91.5626L2648.72 32.7324C2648.72 32.0236 2648.89 31.6692 2649.25 31.1376Z" fill="#1F1C17" />
  <path d="M2733.3 136.394L2711.27 32.7324L2711.09 32.2008C2711.09 31.3148 2711.62 30.7832 2712.87 30.7832H2732.77C2734.01 30.7832 2734.72 31.3148 2734.72 32.5552L2745.38 100.068C2745.56 100.423 2745.56 100.6 2745.92 100.6C2746.09 100.6 2746.27 100.423 2746.45 100.068L2756.76 32.5552C2756.93 31.492 2757.47 30.7832 2758.71 30.7832H2777.9C2779.15 30.7832 2779.68 31.492 2779.5 32.7324L2757.29 136.394C2757.11 137.457 2756.4 138.166 2755.33 138.166H2735.43C2734.19 137.989 2733.48 137.457 2733.3 136.394Z" fill="#1F1C17" />
  <path d="M2880.97 64.9828C2880.61 65.3372 2880.26 65.5144 2879.72 65.5144H2847.56C2847.03 65.5144 2846.85 65.6916 2846.85 66.2232V83.4115C2846.85 83.9431 2847.03 84.1203 2847.56 84.1203H2866.04C2866.57 84.1203 2866.93 84.2975 2867.28 84.6519C2867.64 85.0063 2867.82 85.3607 2867.82 85.8923V100.777C2867.82 101.309 2867.64 101.663 2867.28 102.017C2866.93 102.372 2866.57 102.549 2866.04 102.549H2847.56C2847.03 102.549 2846.85 102.726 2846.85 103.258V118.497C2846.85 119.029 2847.03 119.206 2847.56 119.206H2879.72C2880.26 119.206 2880.61 119.383 2880.97 119.737C2881.32 120.092 2881.5 120.446 2881.5 120.978V135.863C2881.5 136.394 2881.32 136.749 2880.97 137.103C2880.61 137.457 2880.26 137.635 2879.72 137.635H2826.95C2826.41 137.635 2826.06 137.457 2825.7 137.103C2825.35 136.749 2825.17 136.394 2825.17 135.863V48.6804C2825.17 48.1488 2825.35 47.7944 2825.7 47.44C2826.06 47.0856 2826.41 46.9084 2826.95 46.9084H2879.72C2880.26 46.9084 2880.61 47.0856 2880.97 47.44C2881.32 47.7944 2881.5 48.1488 2881.5 48.6804V63.5652C2881.5 64.0968 2881.32 64.4512 2880.97 64.9828Z" fill="#1F1C17" />
  <path d="M2953.47 31.1377C2953.82 31.4921 2954 31.8465 2954 32.3781V47.4401C2954 47.9717 2953.82 48.3261 2953.47 48.6805C2953.11 49.0349 2952.76 49.2121 2952.22 49.2121H2933.03C2932.5 49.2121 2932.32 49.3893 2932.32 49.9209V136.217C2932.32 136.749 2932.14 137.103 2931.79 137.457C2931.43 137.812 2931.08 137.989 2930.54 137.989H2912.6C2912.06 137.989 2911.71 137.812 2911.35 137.457C2911 137.103 2910.82 136.749 2910.82 136.217V50.0981C2910.82 49.5665 2910.64 49.3893 2910.11 49.3893H2891.63C2891.1 49.3893 2890.74 49.2121 2890.38 48.8577C2890.03 48.5033 2889.85 48.1489 2889.85 47.6173V32.7325C2889.85 32.2009 2890.03 31.8465 2890.38 31.4921C2890.74 31.1377 2891.1 30.9605 2891.63 30.9605H2952.58C2952.58 30.6061 2953.11 30.7833 2953.47 31.1377Z" fill="#1F1C17" />
  <path d="M2875.28 41.7695L2854.49 34.8588C2853.6 34.5044 2852.71 34.5044 2851.82 34.8588L2831.21 41.7695C2830.5 41.9467 2829.97 41.5923 2829.61 40.8836L2828.72 37.694C2828.55 36.9852 2828.9 36.2764 2829.61 36.0992L2851.11 28.834C2852.53 28.834 2853.96 28.834 2855.38 28.834L2877.06 36.0992C2877.77 36.2764 2878.12 36.9852 2877.95 37.694L2877.06 40.8836C2876.7 41.7695 2875.99 42.1239 2875.28 41.7695Z" fill="#1F1C17" />
  <path d="M2791.41 53.8191C2790.34 53.8191 2789.63 54.5279 2789.63 55.5911V136.217C2789.63 136.748 2789.81 137.103 2790.16 137.457C2790.52 137.812 2790.87 137.989 2791.41 137.989H2809.35C2809.89 137.989 2810.24 137.812 2810.6 137.457C2810.95 137.103 2811.13 136.748 2811.13 136.217V55.5911C2811.13 54.5279 2810.42 53.8191 2809.35 53.8191H2791.41Z" fill="#1F1C17" />
  <path d="M2809.53 46.9084C2810.6 46.9084 2811.31 46.1996 2811.31 45.1364V32.5552C2811.31 32.0236 2811.13 31.6692 2810.78 31.3148C2810.42 30.9604 2810.06 30.7832 2809.53 30.7832H2791.58C2791.05 30.7832 2790.7 30.9604 2790.34 31.3148C2789.98 31.6692 2789.81 32.0236 2789.81 32.5552V45.1364C2789.81 46.1996 2790.52 46.9084 2791.58 46.9084H2809.53Z" fill="#1F1C17" />
  <path d="M2166.45 149.507C2166.45 146.495 2168.93 144.191 2171.78 144.191C2174.62 144.191 2177.11 146.672 2177.11 149.507C2177.11 152.519 2174.62 154.823 2171.78 154.823C2168.93 154.823 2166.45 152.519 2166.45 149.507Z" fill="#1F1C17" />
  <path d="M2853.25 154.823C2856.19 154.823 2858.58 152.443 2858.58 149.507C2858.58 146.571 2856.19 144.191 2853.25 144.191C2850.3 144.191 2847.92 146.571 2847.92 149.507C2847.92 152.443 2850.3 154.823 2853.25 154.823Z" fill="#1F1C17" />
</svg>
