<svg width="24" height="24" viewBox="0 0 24 24" fill="none" xmlns="http://www.w3.org/2000/svg">
<path id="Vector" d="M3 24C2.175 24 1.4685 23.776 0.880502 23.328C0.292502 22.88 -0.000997453 22.3421 2.54669e-06 21.7143V10.2857C2.54669e-06 9.65714 0.294002 9.11886 0.882002 8.67086C1.47 8.22286 2.176 7.99924 3 8H4.5V5.71429C4.5 4.13333 5.2315 2.78552 6.6945 1.67086C8.1575 0.556191 9.926 -0.000761124 12 7.8064e-07C14.075 7.8064e-07 15.844 0.557334 17.307 1.672C18.77 2.78667 19.501 4.1341 19.5 5.71429V8H21C21.825 8 22.5315 8.224 23.1195 8.672C23.7075 9.12 24.001 9.65791 24 10.2857V21.7143C24 22.3429 23.706 22.8811 23.118 23.3291C22.53 23.7771 21.824 24.0008 21 24H3ZM3 21.7143H21V10.2857H3V21.7143ZM12 18.2857C12.825 18.2857 13.5315 18.0617 14.1195 17.6137C14.7075 17.1657 15.001 16.6278 15 16C15 15.3714 14.706 14.8331 14.118 14.3851C13.53 13.9371 12.824 13.7135 12 13.7143C11.175 13.7143 10.4685 13.9383 9.8805 14.3863C9.2925 14.8343 8.999 15.3722 9 16C9 16.6286 9.294 17.1669 9.882 17.6149C10.47 18.0629 11.176 18.2865 12 18.2857ZM7.5 8H16.5V5.71429C16.5 4.76191 16.0625 3.95238 15.1875 3.28571C14.3125 2.61905 13.25 2.28571 12 2.28571C10.75 2.28571 9.6875 2.61905 8.8125 3.28571C7.9375 3.95238 7.5 4.76191 7.5 5.71429V8Z" fill="black"/>
</svg>
