<svg width="1894" height="1872" viewBox="0 0 1894 1872" fill="none" xmlns="http://www.w3.org/2000/svg">
<path d="M110.762 817.655H85.9208C85.2756 817.655 84.9529 817.304 84.9529 816.604V693.889H56.3486C55.6316 693.889 55.2732 693.538 55.2732 692.838L55.4883 668.779C55.4883 668.218 55.775 667.938 56.3486 667.938H140.011C140.8 667.938 141.194 668.218 141.194 668.779V692.838C141.194 693.538 140.907 693.889 140.333 693.889H111.407L111.622 816.604C111.622 817.304 111.335 817.655 110.762 817.655Z" fill="black"/>
<path d="M177.756 817.655H152.808C152.235 817.655 151.947 817.304 151.947 816.604L152.163 668.779C152.163 668.218 152.521 667.938 153.238 667.938H177.756C178.473 667.938 178.831 668.218 178.831 668.779L178.616 727.299H211.63V668.779C211.63 668.218 211.917 667.938 212.49 667.938H237.008C237.725 667.938 238.084 668.218 238.084 668.779L238.514 816.604C238.514 817.304 238.155 817.655 237.438 817.655H212.705C211.988 817.655 211.63 817.304 211.63 816.604V753.355H178.616V816.604C178.616 817.304 178.33 817.655 177.756 817.655ZM328.521 817.655H257.332C256.759 817.655 256.472 817.304 256.472 816.604L256.687 668.779C256.687 668.218 256.974 667.938 257.548 667.938H328.306C328.879 667.938 329.166 668.288 329.166 668.988V693.048C329.166 693.608 328.879 693.889 328.306 693.889H283.141V727.51H328.306C328.879 727.51 329.166 727.79 329.166 728.35L329.381 752.725C329.381 753.285 329.095 753.565 328.521 753.565H283.141V791.178H328.521C329.095 791.178 329.381 791.529 329.381 792.229V816.814C329.381 817.374 329.095 817.655 328.521 817.655Z" fill="#916717"/>
<path d="M98.5024 1155.38C82.5872 1155.38 68.0341 1151.45 54.8431 1143.61C41.7954 1135.77 31.4003 1125.25 23.6578 1112.09C16.0586 1098.78 12.259 1084 12.259 1067.75L12.6891 933.478C12.6891 917.508 16.4171 903.08 23.8729 890.192C31.3286 877.163 41.5804 866.727 54.628 858.882C67.819 850.897 82.4438 846.905 98.5024 846.905C114.848 846.905 129.401 850.757 142.162 858.462C155.066 866.167 165.318 876.603 172.917 889.771C180.659 902.799 184.531 917.368 184.531 933.478V953.23C184.531 954.351 183.957 954.912 182.811 954.912H133.344C132.197 954.912 131.623 954.351 131.623 953.23V933.478C131.623 923.953 128.469 915.758 122.161 908.893C115.851 902.029 107.966 898.597 98.5024 898.597C88.0357 898.597 80.0063 902.099 74.4145 909.104C68.8227 916.107 66.0267 924.232 66.0267 933.478V1067.75C66.0267 1078.26 69.1811 1086.87 75.4899 1093.59C81.7987 1100.18 89.4695 1103.47 98.5024 1103.47C107.966 1103.47 115.851 1099.83 122.161 1092.55C128.469 1085.13 131.623 1076.85 131.623 1067.75V1047.79C131.623 1046.67 132.197 1046.11 133.344 1046.11H183.24C184.388 1046.11 184.961 1046.67 184.961 1047.79V1067.75C184.961 1083.86 181.09 1098.57 173.347 1111.88C165.461 1125.05 155.066 1135.63 142.162 1143.61C129.258 1151.45 114.705 1155.38 98.5024 1155.38Z" fill="black"/>
<path d="M298.519 1155.38C282.89 1155.38 268.48 1151.45 255.289 1143.61C242.241 1135.77 231.703 1125.33 223.674 1112.3C215.788 1099.13 211.845 1084.71 211.845 1069.01L212.274 932.638C212.274 916.668 216.218 902.309 224.104 889.562C231.846 876.673 242.313 866.377 255.504 858.672C268.695 850.827 283.033 846.905 298.519 846.905C314.577 846.905 328.987 850.757 341.748 858.462C354.651 866.167 364.975 876.533 372.718 889.562C380.604 902.449 384.547 916.808 384.547 932.638L384.976 1069.01C384.976 1084.71 381.106 1099.06 373.362 1112.09C365.477 1125.25 355.01 1135.77 341.963 1143.61C328.915 1151.45 314.434 1155.38 298.519 1155.38ZM298.519 1103.47C307.408 1103.47 315.151 1099.97 321.747 1092.97C328.341 1085.82 331.639 1077.84 331.639 1069.01L331.209 932.638C331.209 923.112 328.127 915.057 321.961 908.473C315.796 901.889 307.982 898.597 298.519 898.597C289.486 898.597 281.742 901.819 275.291 908.262C268.839 914.707 265.613 922.832 265.613 932.638V1069.01C265.613 1078.4 268.839 1086.52 275.291 1093.39C281.742 1100.11 289.486 1103.47 298.519 1103.47ZM493.158 1155.38C477.529 1155.38 463.119 1151.45 449.928 1143.61C436.881 1135.77 426.414 1125.33 418.528 1112.3C410.785 1099.13 406.914 1084.71 406.914 1069.01V1049.26C406.914 1047.72 407.631 1046.95 409.064 1046.95H458.531C459.678 1046.95 460.252 1047.72 460.252 1049.26V1069.01C460.252 1078.4 463.477 1086.52 469.93 1093.39C476.382 1100.11 484.124 1103.47 493.158 1103.47C502.334 1103.47 510.148 1100.04 516.601 1093.17C523.052 1086.17 526.279 1078.12 526.279 1069.01C526.279 1058.51 519.252 1049.33 505.201 1041.49C502.908 1040.08 499.896 1038.4 496.169 1036.44C492.584 1034.34 488.282 1031.96 483.264 1029.3C478.246 1026.63 473.371 1024.04 468.639 1021.52C463.908 1018.86 459.319 1016.34 454.875 1013.96C438.817 1004.71 426.844 993.155 418.958 979.286C411.216 965.277 407.344 949.588 407.344 932.217C407.344 916.247 411.359 901.819 419.388 888.931C427.417 876.183 437.884 866.097 450.788 858.672C463.836 851.107 477.959 847.325 493.158 847.325C508.786 847.325 523.124 851.107 536.172 858.672C549.219 866.377 559.614 876.603 567.356 889.351C575.243 902.099 579.186 916.388 579.186 932.217V967.52C579.186 968.64 578.613 969.2 577.465 969.2H527.999C526.852 969.2 526.279 968.64 526.279 967.52L525.848 932.217C525.848 922.131 522.622 913.936 516.17 907.633C509.718 901.328 502.047 898.176 493.158 898.176C484.124 898.176 476.382 901.538 469.93 908.262C463.477 914.986 460.252 922.971 460.252 932.217C460.252 941.603 462.259 949.448 466.274 955.752C470.432 962.055 477.959 968.079 488.856 973.823C490.003 974.384 492.656 975.784 496.814 978.025C500.972 980.267 505.56 982.788 510.578 985.59C515.739 988.251 520.4 990.703 524.558 992.944C528.716 995.047 531.225 996.306 532.085 996.727C546.71 1004.71 558.252 1014.52 566.711 1026.15C575.315 1037.77 579.616 1052.06 579.616 1069.01C579.616 1085.4 575.745 1100.11 568.002 1113.14C560.116 1126.17 549.65 1136.47 536.602 1144.03C523.554 1151.59 509.073 1155.38 493.158 1155.38ZM661.773 1151.17H611.876C610.729 1151.17 610.156 1150.47 610.156 1149.07L611.016 853.419C611.016 852.298 611.59 851.737 612.737 851.737H666.504C667.652 851.737 668.656 852.298 669.516 853.419L709.734 910.154L749.737 853.419C750.598 852.298 751.672 851.737 752.963 851.737H806.945C808.236 851.737 808.881 852.298 808.881 853.419L809.742 1149.07C809.742 1150.47 809.169 1151.17 808.021 1151.17H758.125C756.978 1151.17 756.404 1150.47 756.404 1149.07L755.974 929.486L709.734 995.047L663.924 929.486L663.493 1149.07C663.493 1150.47 662.92 1151.17 661.773 1151.17ZM990.832 1151.17H848.455C847.307 1151.17 846.734 1150.47 846.734 1149.07L847.164 853.419C847.164 852.298 847.738 851.737 848.884 851.737H990.401C991.549 851.737 992.122 852.438 992.122 853.84V901.959C992.122 903.08 991.549 903.64 990.401 903.64H900.072V970.882H990.401C991.549 970.882 992.122 971.441 992.122 972.562L992.552 1021.31C992.552 1022.43 991.978 1022.99 990.832 1022.99H900.072V1098.22H990.832C991.978 1098.22 992.552 1098.92 992.552 1100.32V1149.49C992.552 1150.61 991.978 1151.17 990.832 1151.17ZM1125.69 1151.17H1076C1074.71 1151.17 1074.06 1150.47 1074.06 1149.07V903.64H1016.86C1015.42 903.64 1014.7 902.94 1014.7 901.538L1015.13 853.419C1015.13 852.298 1015.71 851.737 1016.86 851.737H1184.18C1185.75 851.737 1186.55 852.298 1186.55 853.419V901.538C1186.55 902.94 1185.97 903.64 1184.83 903.64H1126.97L1127.4 1149.07C1127.4 1150.47 1126.83 1151.17 1125.69 1151.17ZM1260.1 1151.17H1210.2C1208.77 1151.17 1208.05 1150.47 1208.05 1149.07L1208.48 853.419C1208.48 852.298 1209.05 851.737 1210.2 851.737H1259.68C1260.82 851.737 1261.39 852.298 1261.39 853.419L1261.82 1149.07C1261.82 1150.47 1261.25 1151.17 1260.1 1151.17ZM1381.62 1155.38C1365.7 1155.38 1351.15 1151.45 1337.96 1143.61C1324.91 1135.77 1314.51 1125.25 1306.77 1112.09C1299.17 1098.78 1295.37 1084 1295.37 1067.75L1295.8 933.478C1295.8 917.508 1299.53 903.08 1306.98 890.192C1314.44 877.163 1324.69 866.727 1337.74 858.882C1350.93 850.897 1365.55 846.905 1381.62 846.905C1397.96 846.905 1412.52 850.757 1425.28 858.462C1438.17 866.167 1448.43 876.603 1456.03 889.771C1463.78 902.799 1467.64 917.368 1467.64 933.478V953.23C1467.64 954.351 1467.07 954.912 1465.92 954.912H1416.46C1415.31 954.912 1414.74 954.351 1414.74 953.23V933.478C1414.74 923.953 1411.58 915.758 1405.27 908.893C1398.96 902.029 1391.08 898.597 1381.62 898.597C1371.15 898.597 1363.12 902.099 1357.52 909.104C1351.93 916.107 1349.14 924.232 1349.14 933.478V1067.75C1349.14 1078.26 1352.29 1086.87 1358.6 1093.59C1364.91 1100.18 1372.58 1103.47 1381.62 1103.47C1391.08 1103.47 1398.96 1099.83 1405.27 1092.55C1411.58 1085.13 1414.74 1076.85 1414.74 1067.75V1047.79C1414.74 1046.67 1415.31 1046.11 1416.46 1046.11H1466.35C1467.5 1046.11 1468.07 1046.67 1468.07 1047.79V1067.75C1468.07 1083.86 1464.21 1098.57 1456.46 1111.88C1448.57 1125.05 1438.17 1135.63 1425.28 1143.61C1412.37 1151.45 1397.82 1155.38 1381.62 1155.38Z" fill="#916717"/>
<path d="M202.382 1346.93C194.423 1346.93 187.147 1344.97 180.552 1341.04C174.028 1337.12 168.83 1331.87 164.96 1325.29C161.16 1318.63 159.26 1311.24 159.26 1303.12L159.475 1235.98C159.475 1228 161.339 1220.78 165.066 1214.34C168.795 1207.83 173.921 1202.61 180.444 1198.68C187.04 1194.69 194.352 1192.69 202.382 1192.69C210.554 1192.69 217.831 1194.62 224.211 1198.47C230.664 1202.33 235.79 1207.55 239.589 1214.13C243.46 1220.64 245.396 1227.92 245.396 1235.98V1245.86C245.396 1246.42 245.109 1246.7 244.535 1246.7H219.802C219.229 1246.7 218.942 1246.42 218.942 1245.86V1235.98C218.942 1231.22 217.365 1227.12 214.21 1223.69C211.056 1220.25 207.113 1218.54 202.382 1218.54C197.148 1218.54 193.134 1220.29 190.338 1223.79C187.541 1227.3 186.144 1231.36 186.144 1235.98V1303.12C186.144 1308.37 187.721 1312.68 190.875 1316.04C194.029 1319.33 197.866 1320.98 202.382 1320.98C207.113 1320.98 211.056 1319.16 214.21 1315.51C217.365 1311.8 218.942 1307.67 218.942 1303.12V1293.13C218.942 1292.57 219.229 1292.29 219.802 1292.29H244.751C245.324 1292.29 245.611 1292.57 245.611 1293.13V1303.12C245.611 1311.17 243.675 1318.52 239.803 1325.18C235.861 1331.77 230.664 1337.05 224.211 1341.04C217.759 1344.97 210.483 1346.93 202.382 1346.93ZM287.442 1344.83H262.494C261.92 1344.83 261.634 1344.47 261.634 1343.77L262.063 1195.95C262.063 1195.39 262.351 1195.11 262.925 1195.11H307.443C315.402 1195.11 322.713 1197 329.381 1200.78C336.048 1204.57 341.353 1209.65 345.296 1216.01C349.311 1222.39 351.318 1229.6 351.318 1237.66C351.318 1242.91 350.493 1247.68 348.845 1251.95C347.195 1256.22 345.261 1259.83 343.037 1262.77C340.887 1265.71 338.916 1267.88 337.123 1269.29C345.081 1277.9 349.06 1288.02 349.06 1299.65L349.276 1343.77C349.276 1344.47 348.917 1344.83 348.2 1344.83H323.252C322.678 1344.83 322.391 1344.61 322.391 1344.19V1299.65C322.391 1294.47 320.527 1289.98 316.799 1286.2C313.072 1282.42 308.483 1280.52 303.034 1280.52H288.518L288.302 1343.77C288.302 1344.47 288.016 1344.83 287.442 1344.83ZM307.443 1220.86H288.518V1254.68H307.443C311.96 1254.68 315.975 1253.04 319.488 1249.74C323.072 1246.45 324.865 1242.43 324.865 1237.66C324.865 1233.11 323.144 1229.18 319.703 1225.89C316.262 1222.53 312.175 1220.86 307.443 1220.86ZM408.419 1346.93C400.677 1346.93 393.508 1344.97 386.912 1341.04C380.317 1337.12 375.047 1331.87 371.105 1325.29C367.233 1318.63 365.297 1311.38 365.297 1303.54L365.728 1195.95C365.728 1195.39 366.014 1195.11 366.588 1195.11H391.321C391.895 1195.11 392.181 1195.39 392.181 1195.95V1303.54C392.181 1308.37 393.759 1312.5 396.913 1315.93C400.068 1319.3 403.903 1320.98 408.419 1320.98C413.151 1320.98 417.094 1319.3 420.249 1315.93C423.402 1312.5 424.98 1308.37 424.98 1303.54V1195.95C424.98 1195.39 425.267 1195.11 425.84 1195.11H450.574C451.147 1195.11 451.434 1195.39 451.434 1195.95L451.864 1303.54C451.864 1311.45 449.928 1318.74 446.057 1325.39C442.113 1331.97 436.881 1337.23 430.356 1341.15C423.833 1345 416.52 1346.93 408.419 1346.93ZM494.986 1344.83H470.253C469.536 1344.83 469.177 1344.47 469.177 1343.77L469.607 1195.95C469.607 1195.39 469.894 1195.11 470.467 1195.11H512.837C526.314 1195.11 536.96 1199.13 544.775 1207.19C552.66 1215.18 556.604 1226.07 556.604 1239.87C556.604 1249.96 554.56 1258.75 550.473 1266.24C546.315 1273.66 540.938 1279.4 534.344 1283.47C527.748 1287.53 520.579 1289.56 512.837 1289.56H496.061V1343.77C496.061 1344.47 495.703 1344.83 494.986 1344.83ZM512.837 1220.64L496.061 1220.86V1263.5H512.837C517.496 1263.5 521.547 1261.34 524.988 1256.99C528.429 1252.58 530.149 1246.87 530.149 1239.87C530.149 1234.26 528.609 1229.68 525.525 1226.11C522.443 1222.46 518.213 1220.64 512.837 1220.64ZM618.544 1344.83H593.703C593.058 1344.83 592.735 1344.47 592.735 1343.77V1221.06H564.131C563.414 1221.06 563.055 1220.72 563.055 1220.01L563.27 1195.95C563.27 1195.39 563.557 1195.11 564.131 1195.11H647.793C648.581 1195.11 648.976 1195.39 648.976 1195.95V1220.01C648.976 1220.72 648.689 1221.06 648.116 1221.06H619.189L619.404 1343.77C619.404 1344.47 619.118 1344.83 618.544 1344.83ZM697.152 1346.93C689.338 1346.93 682.133 1344.97 675.538 1341.04C669.013 1337.12 663.78 1331.91 659.838 1325.39C655.966 1318.8 654.03 1311.59 654.03 1303.75V1293.87C654.03 1293.1 654.389 1292.71 655.106 1292.71H679.839C680.413 1292.71 680.699 1293.1 680.699 1293.87V1303.75C680.699 1308.44 682.312 1312.5 685.539 1315.93C688.764 1319.3 692.636 1320.98 697.152 1320.98C701.74 1320.98 705.647 1319.27 708.873 1315.83C712.1 1312.33 713.713 1308.3 713.713 1303.75C713.713 1298.49 710.199 1293.91 703.174 1289.98C702.027 1289.28 700.521 1288.44 698.658 1287.46C696.865 1286.41 694.715 1285.22 692.205 1283.89C689.697 1282.56 687.259 1281.27 684.893 1280.01C682.527 1278.67 680.233 1277.41 678.011 1276.22C669.981 1271.59 663.996 1265.82 660.052 1258.89C656.181 1251.88 654.246 1244.04 654.246 1235.35C654.246 1227.36 656.253 1220.15 660.267 1213.7C664.282 1207.33 669.516 1202.29 675.967 1198.57C682.492 1194.8 689.552 1192.91 697.152 1192.91C704.966 1192.91 712.135 1194.8 718.659 1198.57C725.183 1202.43 730.38 1207.55 734.252 1213.92C738.195 1220.29 740.166 1227.44 740.166 1235.35V1253C740.166 1253.56 739.88 1253.84 739.306 1253.84H714.573C713.999 1253.84 713.713 1253.56 713.713 1253L713.497 1235.35C713.497 1230.3 711.884 1226.21 708.659 1223.06C705.432 1219.91 701.597 1218.33 697.152 1218.33C692.636 1218.33 688.764 1220.01 685.539 1223.37C682.312 1226.73 680.699 1230.73 680.699 1235.35C680.699 1240.04 681.703 1243.97 683.71 1247.12C685.789 1250.27 689.552 1253.28 695.001 1256.16C695.575 1256.43 696.902 1257.13 698.981 1258.25C701.06 1259.37 703.353 1260.63 705.863 1262.04C708.443 1263.36 710.773 1264.59 712.852 1265.71C714.931 1266.76 716.186 1267.4 716.616 1267.6C723.929 1271.59 729.7 1276.5 733.929 1282.31C738.23 1288.13 740.381 1295.27 740.381 1303.75C740.381 1311.94 738.445 1319.3 734.575 1325.81C730.631 1332.33 725.399 1337.47 718.874 1341.26C712.351 1345.04 705.11 1346.93 697.152 1346.93Z" fill="#916717"/>
<path d="M103.341 1346.93C95.5272 1346.93 88.3223 1344.97 81.7269 1341.04C75.203 1337.12 69.9696 1331.91 66.0266 1325.39C62.1553 1318.8 60.2197 1311.59 60.2197 1303.75V1293.87C60.2197 1293.1 60.5782 1292.71 61.2951 1292.71H86.0282C86.6017 1292.71 86.8885 1293.1 86.8885 1293.87V1303.75C86.8885 1308.44 88.5016 1312.5 91.7276 1315.93C94.9537 1319.3 98.825 1320.98 103.341 1320.98C107.93 1320.98 111.836 1319.27 115.063 1315.83C118.289 1312.33 119.902 1308.3 119.902 1303.75C119.902 1298.49 116.389 1293.91 109.363 1289.98C108.216 1289.28 106.711 1288.44 104.847 1287.46C103.055 1286.41 100.904 1285.22 98.3948 1283.89C95.8856 1282.56 93.4482 1281.27 91.0823 1280.01C88.7166 1278.67 86.4226 1277.41 84.2001 1276.22C76.1708 1271.59 70.1847 1265.82 66.2417 1258.89C62.3704 1251.88 60.4348 1244.04 60.4348 1235.35C60.4348 1227.37 62.4421 1220.15 66.4568 1213.7C70.4714 1207.33 75.7048 1202.29 82.157 1198.57C88.6808 1194.8 95.7423 1192.91 103.341 1192.91C111.156 1192.91 118.324 1194.8 124.849 1198.57C131.372 1202.43 136.569 1207.55 140.441 1213.92C144.384 1220.29 146.355 1227.44 146.355 1235.35V1253C146.355 1253.56 146.069 1253.84 145.495 1253.84H120.762C120.188 1253.84 119.902 1253.56 119.902 1253L119.686 1235.35C119.686 1230.3 118.074 1226.21 114.848 1223.06C111.621 1219.91 107.786 1218.33 103.341 1218.33C98.825 1218.33 94.9537 1220.01 91.7276 1223.37C88.5016 1226.73 86.8885 1230.73 86.8885 1235.35C86.8885 1240.04 87.8922 1243.97 89.8995 1247.12C91.9785 1250.27 95.7423 1253.28 101.191 1256.16C101.764 1256.43 103.091 1257.13 105.17 1258.25C107.249 1259.37 109.543 1260.63 112.052 1262.04C114.633 1263.36 116.962 1264.59 119.041 1265.71C121.12 1266.76 122.375 1267.4 122.805 1267.6C130.118 1271.59 135.889 1276.5 140.118 1282.31C144.42 1288.13 146.57 1295.27 146.57 1303.75C146.57 1311.94 144.635 1319.3 140.764 1325.81C136.82 1332.33 131.588 1337.47 125.063 1341.26C118.54 1345.04 111.299 1346.93 103.341 1346.93Z" fill="black"/>
<path d="M1613.51 928.528C1613.92 944.073 1610.26 958.385 1602.57 971.466C1594.87 984.406 1584.38 994.822 1571.1 1002.71C1557.67 1010.47 1542.64 1014.55 1526.01 1014.96L1388.62 1017.89C1372.28 1018.29 1357.43 1015.01 1344.05 1008.05C1330.54 1001.09 1319.6 991.342 1311.24 978.795C1302.74 966.111 1298.29 951.926 1297.9 936.242C1297.48 920.276 1301.06 905.966 1308.62 893.31C1316.19 880.513 1326.6 870.239 1339.9 862.487C1353.03 854.599 1367.84 850.454 1384.33 850.051L1404.53 849.558C1405.68 849.53 1406.26 850.075 1406.3 851.196L1407.53 899.511C1407.56 900.631 1407 901.206 1405.85 901.233L1385.65 901.727C1375.9 901.965 1367.59 905.251 1360.73 911.584C1353.86 917.918 1350.54 925.706 1350.79 934.949C1351.04 945.172 1354.83 952.926 1362.14 958.213C1369.44 963.5 1377.83 966.027 1387.29 965.796L1524.67 962.439C1535.42 962.177 1544.16 958.88 1550.88 952.55C1557.46 946.224 1560.63 938.649 1560.41 929.827C1560.17 920.584 1556.25 912.972 1548.64 906.993C1540.88 901.016 1532.35 898.142 1523.03 898.369L1502.6 898.869C1501.46 898.897 1500.87 898.35 1500.84 897.23L1499.6 848.496C1499.56 847.375 1500.13 846.801 1501.27 846.773L1521.7 846.274C1538.18 845.871 1553.33 849.284 1567.14 856.514C1580.81 863.887 1591.9 873.775 1600.39 886.18C1608.73 898.588 1613.12 912.703 1613.51 928.528Z" fill="#916717"/>
</svg>
