<svg width="28" height="28" viewBox="0 0 28 28" fill="none" xmlns="http://www.w3.org/2000/svg">
<path d="M22.4777 7.46667C22.4777 7.31111 22.1666 7 21.8555 7H17.8111C17.3444 7 17.0333 7.15556 17.0333 7.62222L15.6333 11.6667H22.4777V7.46667Z" fill="#414548"/>
<path d="M11.7445 7.62222C11.589 7.15556 11.2779 7 10.9668 7H6.76675C6.45564 7 6.14453 7.31111 6.14453 7.46667V11.6667H12.989L11.7445 7.62222Z" fill="#414548"/>
<path d="M18.5891 20.5334C18.5891 20.8445 18.9002 21.0001 19.2113 21.0001H22.0113C22.3224 21.0001 22.478 20.689 22.478 20.5334V12.6001H18.5891V20.5334Z" fill="#414548"/>
<path d="M6.14453 20.5334C6.14453 20.8445 6.45564 21.0001 6.76675 21.0001H9.56675C9.72231 21.0001 10.0334 20.8445 10.0334 20.5334V12.6001H6.14453V20.5334Z" fill="#414548"/>
<path d="M14.5443 14.9334C14.5443 15.089 14.2332 15.089 14.2332 14.9334L13.2998 12.6001H10.1887L12.2109 19.289C12.2109 19.6001 12.5221 19.7557 12.8332 19.7557H15.9443C16.2554 19.7557 16.5665 19.6001 16.5665 19.289L18.5887 12.6001H15.3221L14.5443 14.9334Z" fill="#414548"/>
<path d="M3.96667 11.6665C3.65556 11.6665 3.5 11.8221 3.5 12.1332C3.5 12.4443 3.65556 12.5998 3.96667 12.5998H6.3V11.6665H3.96667Z" fill="#414548"/>
<path d="M24.6554 11.6665H22.322V12.5998H24.6554C24.9665 12.5998 25.122 12.4443 25.122 12.1332C25.122 11.8221 24.9665 11.6665 24.6554 11.6665Z" fill="#414548"/>
<path d="M15.3221 12.5998L15.6332 11.6665H12.9888L13.2999 12.5998H15.3221Z" fill="#414548"/>
</svg>
