<svg width="28" height="28" viewBox="0 0 28 28" fill="none" xmlns="http://www.w3.org/2000/svg">
<path d="M12.7468 13.6316L13.1889 13.1895V11.7159C13.1889 11.5685 13.1889 11.5685 13.3363 11.5685H14.81L15.2521 11.1264L17.4626 8.91586L17.9047 8.47375C17.1679 8.03165 16.2836 7.88428 15.1047 7.88428H9.9468C9.5047 7.88428 9.20996 8.17901 9.20996 8.47375V17.0211L9.65207 16.579L12.7468 13.6316Z" fill="#414548"/>
<path d="M18.6415 8.91602L18.3468 9.35812L16.2836 11.4213L15.9889 11.716C16.2836 11.8634 16.431 12.1581 16.431 12.4529C16.431 13.1897 15.8415 13.4844 15.2521 13.4844H14.0731L13.631 14.0739L9.79943 17.9055L9.20996 18.3476V20.2634C9.20996 20.5581 9.5047 20.8529 9.79943 20.8529H12.4521C12.7468 20.8529 13.0415 20.5581 13.0415 20.2634V17.1686C13.0415 17.0213 13.0415 17.0213 13.1889 17.0213H15.1047C18.3468 17.0213 20.2626 15.2529 20.2626 12.4529C20.2626 10.9792 19.6731 9.80023 18.6415 8.91602Z" fill="#414548"/>
<path d="M9.21006 17.3157V17.021L7.1469 19.2315C6.99953 19.3789 6.99953 19.6736 7.1469 19.821C7.29427 19.9684 7.29427 19.9684 7.44164 19.9684C7.58901 19.9684 7.73638 19.9684 7.73638 19.821L9.21006 18.3473V18.0526V17.3157Z" fill="#414548"/>
<path d="M18.4943 8.76842L18.6416 8.91579L19.8206 7.73684C19.9679 7.58947 19.9679 7.29474 19.8206 7C19.6732 7 19.3785 7 19.2311 7.14737L17.9048 8.47368H18.0522C18.1995 8.62105 18.3469 8.76842 18.4943 8.76842Z" fill="#414548"/>
</svg>
