<svg width="28" height="28" viewBox="0 0 28 28" fill="none" xmlns="http://www.w3.org/2000/svg">
<path d="M13.3227 15.5806L13.7744 15.7312C15.4303 15.8817 16.3335 16.0322 16.3335 16.7849C16.3335 17.3871 15.5808 17.6881 14.6776 17.6881C13.0217 17.6881 11.8174 17.2365 10.9141 16.6344C10.4625 16.4838 10.0109 16.6344 9.86038 16.9355L8.80662 18.5914C8.65608 19.043 8.80662 19.4946 9.10769 19.6451C10.6131 20.5484 12.5701 21 14.527 21C17.3873 21 20.2475 19.7957 20.2475 16.3333C20.2475 15.7312 20.0969 15.129 19.7959 14.5269H10.4625C11.2152 14.9785 12.1184 15.2795 13.3227 15.5806Z" fill="#414548"/>
<path d="M16.1826 12.2688H15.731C14.3761 11.9677 12.8708 11.9677 12.8708 11.2151C12.8708 10.6129 13.6235 10.3118 14.5267 10.3118C15.731 10.3118 16.9353 10.6129 17.688 11.0645C18.1396 11.2151 18.5912 11.0645 18.7417 10.7634L19.4944 9.25806C19.645 8.80645 19.4944 8.35484 19.0428 8.2043C17.3869 7.15054 16.0321 7 14.3761 7C11.2149 7 9.10732 8.65591 8.95679 11.3656C8.95679 12.2688 9.10732 13.0215 9.55894 13.6237H19.0428C18.2901 13.0215 17.3869 12.5699 16.1826 12.2688Z" fill="#414548"/>
<path d="M21.4516 13.6235H19.043C19.344 13.7741 19.6451 14.2257 19.7957 14.5268H21.4516C21.7526 14.5268 22.0537 14.3762 22.0537 14.0751C22.0537 13.7741 21.7526 13.6235 21.4516 13.6235Z" fill="#414548"/>
<path d="M9.55914 13.6235H7.45161C7.15054 13.6235 7 13.7741 7 14.0751C7 14.3762 7.15054 14.5268 7.45161 14.5268H10.4624C10.0108 14.2257 9.70968 13.9246 9.55914 13.6235Z" fill="#414548"/>
</svg>
